<svg xmlns="http://www.w3.org/2000/svg" viewBox="0 0 838.18915 838.18915"><defs><style>.a{fill:#475993;}</style></defs><path class="a" d="M79.67572,231.29669V769.48584a150,150,0,0,0,150,150H494.50629s.37005-196.65613.86175-290.483c.03974-7.58-2.02-9.50311-9.42554-9.33093-21.53588.50048-43.09118.23559-64.63842.15618-15.55689-.05737-22.3548-6.89978-22.425-22.56243q-.1983-44.22489-.21072-88.45057A22.03646,22.03646,0,0,1,420.562,486.80188c22.092-.14771,44.18928-.257,66.27662.09662,6.20471.0993,7.80268-1.8656,7.81208-7.895.0531-34.08856-1.30726-68.2124.75567-102.25983,2.72-44.891,17.15973-84.793,52.52643-114.77936,26.58087-22.537,58.17877-32.69867,92.39624-34.92034,30.76849-1.99769,61.62335-.79651,92.439-.79627,15.21533.00012,21.83343,6.8183,21.94207,22.09192q.26194,36.8203.00318,73.64386c-.10132,15.52942-6.93079,22.18768-22.60639,22.41815-18.81512.27661-37.67-.26135-56.43774.79633-17.34656.97754-33.34216,5.97424-42.87079,22.52026a49.39485,49.39485,0,0,0-6.32513,20.11835c-2.99567,31.3006-.76679,62.69275-1.49994,94.03467-.13617,5.82305,3.79535,4.86834,7.20624,4.87121q50.73221.04248,101.46441.02136c20.352.00653,26.68915,7.47675,24.17743,27.73011-3.52173,28.39825-6.72858,56.83557-10.1217,85.25006-1.71778,14.38452-8.053,20.05523-22.592,20.08551-29.73.06183-59.46533.31982-89.18708-.17865-8.01562-.13452-10.43042,1.5802-10.41986,10.08172.11658,93.28235-.23968,196.47058-.48333,289.7533H767.86487a150,150,0,0,0,150-150V231.29669a150,150,0,0,0-150-150H229.67572A150,150,0,0,0,79.67572,231.29669Z" transform="translate(-79.67572 -81.29669)"/></svg>