<svg xmlns="http://www.w3.org/2000/svg" xmlns:xlink="http://www.w3.org/1999/xlink" viewBox="0 0 840 840"><defs><style>.a{fill:url(#a);}.b{fill:url(#b);}.c{fill:url(#c);}</style><linearGradient id="a" x1="875.21495" y1="124.78505" x2="125.11226" y2="874.88774" gradientUnits="userSpaceOnUse"><stop offset="0.15252" stop-color="#9101db"/><stop offset="0.34684" stop-color="#c912ac"/><stop offset="0.4732" stop-color="#ef1e8d"/><stop offset="0.53056" stop-color="#fa2184"/><stop offset="0.66889" stop-color="#fd6c58"/><stop offset="0.85775" stop-color="#fdcf1c"/></linearGradient><linearGradient id="b" x1="839.97618" y1="-0.08322" x2="0.5694" y2="839.32356" xlink:href="#a"/><linearGradient id="c" x1="918.7114" y1="78.77081" x2="80.18062" y2="917.30158" xlink:href="#a"/></defs><path class="a" d="M80,230V770A150,150,0,0,0,230,920H770A150,150,0,0,0,920,770V230A150,150,0,0,0,770,80H230A150,150,0,0,0,80,230ZM681.22723,831.22723H318.77277a150,150,0,0,1-150-150V318.77277a150,150,0,0,1,150-150H681.22723a150,150,0,0,1,150,150V681.22723A150,150,0,0,1,681.22723,831.22723Z" transform="translate(-80 -80)"/><circle class="b" cx="633.25505" cy="206.63791" r="52.14712"/><path class="c" d="M502.80273,280.38934c-118.34912,0-214.2901,95.94092-214.2901,214.2901s95.941,214.2901,214.2901,214.2901c118.34919,0,214.29017-95.94091,214.29017-214.2901S621.15192,280.38934,502.80273,280.38934Zm0,339.33606a125.04593,125.04593,0,1,1,125.046-125.046A125.04594,125.04594,0,0,1,502.80273,619.7254Z" transform="translate(-80 -80)"/></svg>